HIERARCHY
ROOT Hips
{
	OFFSET	0.00	0.00	0.00
	CHANNELS 6 Xposition Yposition Zposition Zrotation Xrotation Yrotation
	JOINT LeftUpLeg
	{
		OFFSET	 0.126116	-0.014019	-0.065224
		CHANNELS 3 Zrotation Xrotation Yrotation
		JOINT LeftLeg
		{
			OFFSET	 0.000000	 0.000000	 0.569914
			CHANNELS 3 Zrotation Xrotation Yrotation
			JOINT LeftFoot
			{
				OFFSET	 0.000000	 0.000000	 0.544423
				CHANNELS 3 Zrotation Xrotation Yrotation
				JOINT LeftToeBase
				{
					OFFSET	 0.000000	 0.000000	 0.207117
					CHANNELS 3 Zrotation Xrotation Yrotation
					End Site
					{
						OFFSET	 0.000000	 0.000000	 0.207117
					}
				}
			}
		}
	}
	JOINT RightUpLeg
	{
		OFFSET	-0.124023	-0.008373	-0.065224
		CHANNELS 3 Zrotation Xrotation Yrotation
		JOINT RightLeg
		{
			OFFSET	 0.000000	 0.000000	 0.570047
			CHANNELS 3 Zrotation Xrotation Yrotation
			JOINT RightFoot
			{
				OFFSET	 0.000000	 0.000000	 0.544354
				CHANNELS 3 Zrotation Xrotation Yrotation
				JOINT RightToeBase
				{
					OFFSET	 0.000000	 0.000000	 0.207540
					CHANNELS 3 Zrotation Xrotation Yrotation
					End Site
					{
						OFFSET	 0.000000	 0.000000	 0.207540
					}
				}
			}
		}
	}
	JOINT Spine
	{
		OFFSET	 0.000184	-0.007763	 0.117403
		CHANNELS 3 Zrotation Xrotation Yrotation
		JOINT Spine1
		{
			OFFSET	 0.000000	 0.000000	 0.137269
			CHANNELS 3 Zrotation Xrotation Yrotation
			JOINT Spine2
			{
				OFFSET	 0.000000	 0.000000	 0.156879
				CHANNELS 3 Zrotation Xrotation Yrotation
				JOINT LeftShoulder
				{
					OFFSET	 0.080501	-0.002496	 0.160144
					CHANNELS 3 Zrotation Xrotation Yrotation
					JOINT LeftArm
					{
						OFFSET	 0.000000	 0.000000	 0.164363
						CHANNELS 3 Zrotation Xrotation Yrotation
						JOINT LeftForeArm
						{
							OFFSET	 0.000000	 0.000000	 0.364576
							CHANNELS 3 Zrotation Xrotation Yrotation
							JOINT LeftHand
							{
								OFFSET	 0.000000	 0.000000	 0.360812
								CHANNELS 3 Zrotation Xrotation Yrotation
								JOINT LeftHandIndex1
								{
									OFFSET	 0.000000	 0.000000	 0.086006
									CHANNELS 3 Zrotation Xrotation Yrotation
									JOINT LeftHandIndex2
									{
										OFFSET	 0.000000	 0.000000	 0.047236
										CHANNELS 3 Zrotation Xrotation Yrotation
										JOINT LeftHandIndex3
										{
											OFFSET	-0.004284	-0.000551	 0.038166
											CHANNELS 3 Zrotation Xrotation Yrotation
											End Site
											{
												OFFSET	-0.004284	-0.000551	 0.038166
											}
										}
									}
								}
							}
						}
					}
				}
				JOINT Neck
				{
					OFFSET	 0.000000	 0.000000	 0.176489
					CHANNELS 3 Zrotation Xrotation Yrotation
					JOINT Head
					{
						OFFSET	 0.000000	-0.001747	 0.077940
						CHANNELS 3 Zrotation Xrotation Yrotation
						End Site
						{
							OFFSET	 0.000000	-0.001747	 0.077940
						}
					}
				}
				JOINT RightShoulder
				{
					OFFSET	-0.080363	 0.000306	 0.159706
					CHANNELS 3 Zrotation Xrotation Yrotation
					JOINT RightArm
					{
						OFFSET	 0.000000	 0.000000	 0.164196
						CHANNELS 3 Zrotation Xrotation Yrotation
						JOINT RightForeArm
						{
							OFFSET	 0.000000	 0.000000	 0.365611
							CHANNELS 3 Zrotation Xrotation Yrotation
							JOINT RightHand
							{
								OFFSET	 0.000000	 0.000000	 0.360648
								CHANNELS 3 Zrotation Xrotation Yrotation
								JOINT RightHandIndex1
								{
									OFFSET	 0.000000	 0.000000	 0.069977
									CHANNELS 3 Zrotation Xrotation Yrotation
									JOINT RightHandIndex2
									{
										OFFSET	 0.000000	 0.000000	 0.052305
										CHANNELS 3 Zrotation Xrotation Yrotation
										JOINT RightHandIndex3
										{
											OFFSET	 0.009002	-0.000782	 0.042196
											CHANNELS 3 Zrotation Xrotation Yrotation
											End Site
											{
												OFFSET	 0.009002	-0.000782	 0.042196
											}
										}
									}
								}
							}
						}
					}
				}
			}
		}
	}
}
MOTION
Frames:    11
Frame Time: 0.03333334
 0.339101	-0.251350	 0.268666	 94.264600	 0.638761	 3.684883	 5.060395	-3.930459	 176.467700	-11.289900	-33.682360	-5.170310	 171.950800	 86.654790	 179.360100	-2.377594	 30.156870	-0.037282	 1.785426	-12.636730	 178.897100	 3.650342	-47.588390	 5.717043	-175.208500	 82.190860	-178.840500	 2.403672	 22.143600	-0.130208	-6.526283	 1.466253	-1.980293	-9.888890	-0.960337	-0.750850	-11.447640	-2.747146	-1.033244	-91.809590	 77.632640	 179.116200	 36.880760	 69.876400	-39.972070	-7.952498	-3.984457	-19.718220	 3.570736	-25.610350	-5.913389	-3.812334	 37.924440	-2.927599	-2.450526	 36.184240	 0.754587	-1.378229	 35.397820	-2.634230	 0.567003	 6.078442	-3.222618	-2.594573	-13.556040	-2.388400	 89.766050	 79.242930	-179.653200	-36.469650	 70.283470	 39.114380	 4.199541	-7.839606	 30.864930	-7.035688	-26.338780	 10.705070	 6.437017	 35.671460	-0.771858	 2.830251	 35.756010	-7.813440	-2.350882	 35.473990	 5.254307
 0.344897	-0.251125	 0.268319	 94.454840	 0.677252	 3.694649	 5.046128	-4.033511	 176.487800	-11.205510	-33.809200	-5.147799	 171.963500	 86.514680	 179.413100	-2.377179	 30.236420	-0.039036	 1.759973	-12.688830	 178.981000	 3.667797	-47.676790	 5.732899	-175.485800	 82.030800	-178.571400	 2.403677	 22.141550	-0.130252	-6.559957	 1.498260	-2.039638	-9.918092	-0.947943	-0.753830	-11.508020	-2.733872	-1.037401	-91.809800	 77.606940	 179.134100	 36.707890	 69.870420	-39.709630	-8.009689	-4.007051	-20.009340	 3.518542	-25.625020	-5.917803	-3.812334	 37.924440	-2.927599	-2.450526	 36.184240	 0.754587	-1.378229	 35.397820	-2.634230	 0.503465	 6.046093	-3.204575	-2.659209	-13.487040	-2.397367	 89.765210	 79.267730	-179.644600	-36.374510	 70.366190	 39.094170	 4.258153	-7.798528	 30.607400	-7.063853	-26.358510	 10.708470	 6.437017	 35.671460	-0.771858	 2.830251	 35.756010	-7.813440	-2.350882	 35.473990	 5.254307
 0.333260	-0.249771	 0.267553	 94.722240	 0.779867	 3.738647	 5.009133	-4.298444	 176.532500	-11.009750	-34.168100	-5.107227	 171.961700	 86.184680	 179.568000	-2.375813	 30.490770	-0.044688	 1.857665	-12.875020	 178.970200	 3.852896	-48.111950	 5.988951	-176.050800	 81.591950	-177.880500	 2.403550	 22.214240	-0.128782	-6.646497	 1.528394	-2.103909	-9.934902	-0.942711	-0.800298	-11.563520	-2.738498	-1.042903	-91.808690	 77.608910	 179.160800	 36.587860	 69.778430	-39.607420	-8.144875	-4.022974	-20.552170	 3.365133	-25.697170	-5.933012	-3.812334	 37.924440	-2.927599	-2.450526	 36.184240	 0.754587	-1.378229	 35.397820	-2.634230	 0.468761	 5.759085	-3.462617	-2.681042	-13.219150	-2.116157	 89.764270	 79.263970	-179.623100	-36.259280	 70.475260	 39.050980	 4.302364	-7.708323	 30.122970	-7.102693	-26.440710	 10.722860	 6.437017	 35.671460	-0.771858	 2.830251	 35.756010	-7.813440	-2.350882	 35.473990	 5.254307
 0.331229	-0.246981	 0.266809	 94.749530	 0.826708	 3.706695	 5.037207	-4.540955	 176.624500	-10.841730	-34.527600	-5.037716	 172.146900	 85.885060	 179.578400	-2.374688	 30.696870	-0.049282	 1.994227	-13.365520	 179.017000	 4.205848	-49.119800	 6.477739	-176.220700	 81.245280	-177.504700	 2.402544	 22.745400	-0.118028	-6.780038	 1.691562	-2.019917	-10.008090	-0.960956	-0.845548	-11.691210	-2.771735	-1.057877	-91.804460	 77.694060	 179.199100	 36.606190	 69.619640	-39.810730	-8.271006	-4.004116	-20.921790	 3.202110	-25.811170	-5.954167	-3.812334	 37.924440	-2.927599	-2.450526	 36.184240	 0.754587	-1.378229	 35.397820	-2.634230	 0.331944	 5.545306	-3.424181	-2.815470	-13.121220	-2.270476	 89.765620	 79.174290	-179.617000	-36.369340	 70.542480	 39.396080	 4.305905	-7.665169	 29.753660	-7.194877	-26.563960	 10.745250	 6.437017	 35.671460	-0.771858	 2.830251	 35.756010	-7.813440	-2.350882	 35.473990	 5.254307
 0.331366	-0.243193	 0.265996	 94.594480	 0.845350	 3.523805	 5.265328	-4.724236	 176.885100	-10.802300	-34.832640	-4.895567	 172.737000	 85.625830	 179.275600	-2.374022	 30.816240	-0.051950	 2.218035	-14.439810	 179.267500	 4.601712	-51.070860	 7.210048	-176.237400	 81.140980	-177.322400	 2.399504	 24.092740	-0.090503	-6.971241	 2.053231	-1.722629	-10.150870	-0.994287	-0.848715	-11.899080	-2.821682	-1.081989	-91.797680	 77.837590	 179.267600	 36.698200	 69.396510	-40.258470	-8.392447	-3.961732	-21.155120	 3.043505	-25.973800	-5.981829	-3.812334	 37.924440	-2.927599	-2.450526	 36.184240	 0.754587	-1.378229	 35.397820	-2.634230	 0.088582	 5.569655	-3.150717	-3.050914	-13.303000	-2.727099	 89.769270	 79.022390	-179.645000	-36.524440	 70.602870	 39.853310	 4.382298	-7.600967	 29.454590	-7.228167	-26.731080	 10.777140	 6.437017	 35.671460	-0.771858	 2.830251	 35.756010	-7.813440	-2.350882	 35.473990	 5.254307
 0.331509	-0.239171	 0.265120	 94.355470	 0.871627	 3.162336	 5.698516	-4.791659	 177.272700	-10.966220	-34.989560	-4.713809	 174.368200	 85.452060	 177.972700	-2.372792	 31.034650	-0.056844	 2.289649	-16.128310	 179.759200	 5.298524	-53.925530	 8.220074	-176.028300	 81.409840	-177.432700	 2.391542	 26.679630	-0.036567	-7.131577	 2.443860	-1.244385	-10.223490	-1.033012	-0.770849	-11.982470	-2.925878	-1.100483	-91.791570	 78.007200	 179.309600	 36.817950	 69.143290	-40.864380	-8.517435	-3.901603	-21.242910	 2.898730	-26.164580	-6.012376	-3.812334	 37.924440	-2.927599	-2.450526	 36.184240	 0.754587	-1.378229	 35.397820	-2.634230	 0.003033	 5.417755	-3.187356	-3.118807	-13.454910	-2.847116	 89.773390	 78.844530	-179.689200	-36.783110	 70.637190	 40.441400	 4.490827	-7.524667	 29.247710	-7.204000	-26.919520	 10.814630	 6.437017	 35.671460	-0.771858	 2.830251	 35.756010	-7.813440	-2.350882	 35.473990	 5.254307
 0.331719	-0.234072	 0.263784	 93.911180	 0.905464	 2.558428	 6.279349	-4.680038	 177.948600	-11.312580	-34.948750	-4.484663	 175.640300	 85.362490	 177.032900	-2.371137	 31.321640	-0.063296	 2.510967	-19.086110	-179.445000	 6.816144	-58.619100	 10.304080	-175.137700	 82.677260	-178.143900	 2.368591	 31.490780	 0.068612	-7.291830	 2.884197	-0.498375	-10.257460	-1.046094	-0.589603	-12.032640	-3.053815	-1.118510	-91.784460	 78.233490	 179.347400	 36.910800	 68.810220	-41.653630	-8.650687	-3.822339	-21.194610	 2.769504	-26.427290	-6.052066	-3.812334	 37.924440	-2.927599	-2.450526	 36.184240	 0.754587	-1.378229	 35.397820	-2.634230	-0.031051	 5.330499	-3.281448	-3.156662	-13.760980	-2.971441	 89.777070	 78.612010	-179.712500	-37.145060	 70.655210	 41.162520	 4.637648	-7.437404	 29.143930	-7.126593	-27.170930	 10.867270	 6.437017	 35.671460	-0.771858	 2.830251	 35.756010	-7.813440	-2.350882	 35.473990	 5.254307
 0.332355	-0.227822	 0.261756	 93.294730	 0.938660	 1.797314	 6.960265	-4.261700	 178.887100	-11.847160	-34.545900	-4.218158	 176.835300	 85.402570	 176.131700	-2.369050	 31.672430	-0.071232	 2.923024	-23.484290	-178.463100	 10.643550	-65.284040	 14.917430	-173.003400	 85.629730	-179.930800	 2.348537	 34.448540	 0.137307	-7.504924	 3.365418	 0.375101	-10.267840	-1.043806	-0.303171	-12.051140	-3.230057	-1.138711	-91.778830	 78.430550	 179.369200	 36.942200	 68.372050	-42.581140	-8.767600	-3.718664	-20.958750	 2.659029	-26.771720	-6.103401	-3.812334	 37.924440	-2.927599	-2.450526	 36.184240	 0.754587	-1.378229	 35.397820	-2.634230	-0.014908	 5.303350	-3.415408	-3.164783	-14.262430	-3.093215	 89.779690	 78.411170	-179.726000	-37.732170	 70.636120	 42.155030	 4.789866	-7.337794	 29.139260	-6.997011	-27.496550	 10.936620	 6.437017	 35.671460	-0.771858	 2.830251	 35.756010	-7.813440	-2.350882	 35.473990	 5.254307
 0.333914	-0.222683	 0.259810	 92.746270	 0.978875	 1.208464	 7.697182	-3.722526	 179.553900	-12.311520	-33.924210	-3.886471	 178.085400	 85.493630	 175.223600	-2.364549	 32.396200	-0.087736	 3.199510	-27.762090	-177.854800	 17.739040	-70.499880	 22.458080	-168.760900	 89.063930	 176.532900	 2.377558	 29.873900	 0.032461	-7.763159	 3.664247	 1.053108	-10.280600	-0.999714	-0.037219	-12.040000	-3.369684	-1.152265	-91.775400	 78.554230	 179.334100	 36.752850	 67.948080	-43.101650	-8.892779	-3.596175	-20.658900	 2.511419	-27.105780	-6.155539	-3.812334	 37.924440	-2.927599	-2.450526	 36.184240	 0.754587	-1.378229	 35.397820	-2.634230	 0.018014	 5.306092	-3.544801	-3.127227	-14.676440	-3.127599	 89.781110	 78.290600	-179.724800	-38.367270	 70.593240	 43.127480	 4.849937	-7.271715	 29.172000	-6.911520	-27.793190	 11.014620	 6.437017	 35.671460	-0.771858	 2.830251	 35.756010	-7.813440	-2.350882	 35.473990	 5.254307
 0.337193	-0.217490	 0.258094	 92.397920	 1.009834	 0.648968	 8.468550	-3.145900	-179.942300	-12.606190	-33.183610	-3.450980	 179.481500	 85.673010	 174.315300	-2.356961	 33.523150	-0.113847	 3.127366	-32.023310	-177.432000	 27.646120	-73.975790	 32.400780	-61.570130	 89.655650	 70.391010	 2.388134	 27.568630	-0.017646	-8.284674	 4.011323	 1.730946	-10.441560	-1.070211	 0.143818	-12.023160	-3.537874	-1.168218	-91.769450	 78.727710	 179.244700	 36.677540	 67.505260	-43.705630	-9.032954	-3.443567	-20.331850	 2.297583	-27.504100	-6.220679	-3.812334	 37.924440	-2.927599	-2.450526	 36.184240	 0.754587	-1.378229	 35.397820	-2.634230	 0.004105	 5.244474	-3.763231	-2.979165	-15.027070	-2.925040	 89.782570	 78.114360	-179.871800	-38.745900	 70.589900	 43.631340	 4.876207	-7.210343	 29.199830	-6.854272	-28.172370	 11.099500	 6.437017	 35.671460	-0.771858	 2.830251	 35.756010	-7.813440	-2.350882	 35.473990	 5.254307
 0.342903	-0.212078	 0.257413	 92.229150	 1.072813	 0.637890	 8.660213	-2.488635	-179.874400	-12.686210	-32.063340	-3.229640	-179.804600	 85.856360	 173.682500	-2.351587	 34.263030	-0.131282	 2.676716	-35.818190	-177.924100	 32.093190	-74.656930	 36.379660	-150.785200	 88.866840	 160.190300	 2.379780	 29.432350	 0.022735	-9.036458	 4.362729	 1.820306	-10.617930	-1.179551	 0.079160	-11.945110	-3.790912	-1.186853	-91.764610	 78.817470	 179.106900	 37.036510	 67.107400	-44.864380	-9.096807	-3.311372	-19.981610	 2.167444	-27.989550	-6.300610	-3.812334	 37.924440	-2.927599	-2.450526	 36.184240	 0.754587	-1.378229	 35.397820	-2.634230	 0.029873	 4.970611	-4.053494	-2.704978	-15.209960	-2.257967	 89.781650	 78.022030	 179.939400	-38.845400	 70.663080	 43.674980	 4.959326	-7.113023	 29.177830	-6.762592	-28.632860	 11.204990	 6.437017	 35.671460	-0.771858	 2.830251	 35.756010	-7.813440	-2.350882	 35.473990	 5.254307
